Coordinates
version=1
nRows=10
nColumns=40
inDegrees=yes

Units are S.I. units (second, meters, Newtons, ...)
Angles are in degrees.

endheader
time	pelvis_tilt	pelvis_list	pelvis_rotation	pelvis_tx	pelvis_ty	pelvis_tz	hip_flexion_r	hip_adduction_r	hip_rotation_r	knee_angle_r	knee_angle_r_beta	ankle_angle_r	subtalar_angle_r	mtp_angle_r	hip_flexion_l	hip_adduction_l	hip_rotation_l	knee_angle_l	knee_angle_l_beta	ankle_angle_l	subtalar_angle_l	mtp_angle_l	lumbar_extension	lumbar_bending	lumbar_rotation	arm_flex_r	arm_add_r	arm_rot_r	elbow_flex_r	pro_sup_r	wrist_flex_r	wrist_dev_r	arm_flex_l	arm_add_l	arm_rot_l	elbow_flex_l	pro_sup_l	wrist_flex_l	wrist_dev_l
     58.93342857	     -4.54192134	     -5.73186351	      8.16084501	      1.04312066	      0.92456535	      0.51625997	      1.50892133	      4.18010675	    -20.06549515	      9.14859063	      9.14859063	     13.91211137	      3.33735277	     -6.02418837	     28.93361234	     -8.76795367	     -2.91634956	     19.69461924	     19.69461924	      1.97228655	     -7.89572329	      3.93885304	     -8.29847903	      6.15006416	      4.59107084	     41.90906576	    -18.70431872	     -6.72122649	     93.39559046	     44.57951537	      0.00000000	      0.00000000	    -11.54571748	     -6.57798444	      5.24985253	     30.13127969	     44.64236788	      0.00000000	      0.00000000
     58.94685714	     -4.44224953	     -5.79284019	      8.01022626	      1.04414332	      0.92401106	      0.51404260	      1.03960054	      4.12096319	    -19.86120646	      9.33414676	      9.33414676	     14.22314978	      3.34436866	     -6.11357197	     28.33950007	     -8.68537251	     -2.92175239	     20.14037172	     20.14037172	      2.12156355	     -8.25262772	      3.84814990	     -8.18115378	      6.20783837	      4.52478455	     41.16700167	    -18.39418338	     -6.61999543	     93.14190457	     44.58287865	      0.00000000	      0.00000000	    -11.16209949	     -6.73048841	      5.23658537	     30.24882444	     44.65223406	      0.00000000	      0.00000000
     58.96028571	     -4.24064055	     -5.77064367	      7.90630432	      1.04517284	      0.92372825	      0.51157111	      0.54400032	      3.93284436	    -19.69719348	      9.71616722	      9.71616722	     14.48669866	      3.20885894	     -6.10492842	     27.78131829	     -8.51617392	     -2.72023716	     20.77830118	     20.77830118	      2.37097752	     -8.84879251	      3.67512155	     -8.18958046	      6.13022302	      4.47662691	     40.12541481	    -18.06882504	     -6.67875711	     92.60356044	     44.60063638	      0.00000000	      0.00000000	    -10.73848562	     -6.95525915	      5.21486556	     30.35136954	     44.66563626	      0.00000000	      0.00000000
     58.97371429	     -4.23857009	     -5.71696741	      7.78814358	      1.04584895	      0.92336188	      0.50892490	      0.56437645	      3.57626296	    -19.36927782	     10.67084692	     10.67084692	     15.03300156	      2.70758814	     -5.65575726	     27.44326548	     -8.19488635	     -2.11028044	     21.26004905	     21.26004905	      2.49378094	    -10.07907056	      3.56916931	     -7.95709962	      5.99955839	      4.59457216	     39.11509676	    -17.72124069	     -7.70751350	     91.26190080	     44.68509609	      0.00000000	      0.00000000	    -10.02492730	     -7.17984029	      5.23606672	     30.35289331	     44.69099286	      0.00000000	      0.00000000
     58.98714286	     -4.09670017	     -5.63549631	      7.71293248	      1.04655539	      0.92349269	      0.50611380	      0.37224555	      3.22132240	    -19.12190109	     11.51493688	     11.51493688	     15.66884102	      2.43049578	     -4.40542029	     26.97017283	     -7.92805733	     -1.72145276	     21.68930608	     21.68930608	      2.81875949	    -10.81100844	      3.35649553	     -7.94676883	      5.87372986	      4.45357588	     38.00273609	    -17.00304203	     -8.63234861	     90.19191626	     44.77355490	      0.00000000	      0.00000000	     -9.16271706	     -7.38864725	      5.32060136	     29.95413796	     44.73666972	      0.00000000	      0.00000000
     59.00057143	     -3.85763593	     -5.59197711	      7.69463793	      1.04729856	      0.92393398	      0.50311236	     -0.02176665	      2.93494354	    -19.00615888	     12.10915197	     12.10915197	     15.73312332	      2.23443839	     -4.42459273	     26.47383278	     -7.76577767	     -1.49149890	     22.17599602	     22.17599602	      3.35059897	    -11.07844399	      3.09781002	     -8.07136386	      5.85304479	      4.18168291	     36.66253629	    -16.66639947	     -8.48611961	     89.62465697	     44.78313107	      0.00000000	      0.00000000	     -8.40525402	     -7.63942513	      5.27548221	     30.16211137	     44.75771701	      0.00000000	      0.00000000
     59.01400000	     -3.86387947	     -5.41914316	      7.55425211	      1.04756352	      0.92410979	      0.49999168	      0.40946921	      2.27474023	    -18.61373693	     13.79256840	     13.79256840	     16.09371820	      1.42111052	     -4.28405214	     26.25993228	     -7.43564849	     -1.32401117	     22.67540000	     22.67540000	      3.89408714	    -11.64567375	      3.05508539	     -7.92323464	      5.61158782	      4.35010855	     35.25506850	    -16.71896217	     -8.98103047	     87.93888172	     44.85659423	      0.00000000	      0.00000000	     -7.37313044	     -7.89752073	      5.21748910	     30.15701263	     44.79741303	      0.00000000	      0.00000000
     59.02742857	     -3.73200611	     -5.29166168	      7.46454421	      1.04798084	      0.92469374	      0.49673887	      0.56661715	      1.72510982	    -18.28763187	     15.20861764	     15.20861764	     16.27452818	      0.80058783	     -4.19502562	     25.85203852	     -7.18298742	     -1.22884952	     23.05230909	     23.05230909	      4.48956335	    -11.96444144	      3.01820145	     -7.94274118	      5.47118563	      4.25466794	     33.80272394	    -16.49616618	     -9.24836409	     86.48157344	     44.91273219	      0.00000000	      0.00000000	     -6.27840366	     -8.14045774	      5.18219965	     30.14811063	     44.83201950	      0.00000000	      0.00000000
     59.04085714	     -3.62902435	     -5.14727652	      7.34290327	      1.04827144	      0.92535739	      0.49337082	      0.93313490	      1.08963947	    -17.91347361	     16.93805429	     16.93805429	     16.35594495	      0.04900458	     -4.21787994	     25.43734449	     -6.92411783	     -1.25672720	     23.35479647	     23.35479647	      5.09036507	    -12.16875560	      3.03814211	     -7.90375866	      5.34724336	      4.23617933	     32.30902371	    -16.32084174	     -9.51030498	     84.71506287	     44.97881547	      0.00000000	      0.00000000	     -5.09787295	     -8.37647221	      5.15826647	     30.08978486	     44.86767108	      0.00000000	      0.00000000
     59.05428571	     -3.47867408	     -4.98251257	      7.19285663	      1.04856779	      0.92614080	      0.48997408	      1.33804017	      0.40346231	    -17.54993776	     18.81433171	     18.81433171	     16.27868368	     -0.71271162	     -4.46149705	     24.90446048	     -6.67472346	     -1.45072717	     23.56457298	     23.56457298	      5.71695141	    -12.27057580	      2.95715670	     -7.95647464	      5.18349088	      4.20784033	     30.76796629	    -16.17827500	     -9.57463473	     83.05323349	     45.03255128	      0.00000000	      0.00000000	     -3.93089135	     -8.63578829	      5.12935486	     30.17275184	     44.89934128	      0.00000000	      0.00000000
